#!OML:ASF H:\GeneralSubjects\Female5\Project 1\Capture day 1\Session 1\Female5.ASF
:FULLY-SPECIFIED
:DEGREES
431
root 22.0614 16.0305 2.55382 -170.18 5.24888 -175.433
lowerback 10.2502 0.940677 1.4813
upperback -8.08655 1.7935 -0.792552
thorax -14.6894 0.776212 -2.16283
lowerneck -19.3037 -2.0632 -1.66032
upperneck 36.0742 1.97517 -3.6766
head 16.1878 1.0843 -0.62863
rclavicle 1.47101e-014 1.11319e-014
rhumerus -52.3585 17.6524 -84.1307
rradius 33.6759
rwrist -12.6305
rhand -25.8972 -15.7902
rfingers 7.12502
rthumb 0.645013 -45.769
lclavicle 1.47101e-014 1.11319e-014
lhumerus -51.5058 6.75781 65.8329
lradius 29.3489
lwrist -5.0309
lhand -34.1245 29.6706
lfingers 7.12502
lthumb -7.29979 59.5246
rfemur -6.29443 8.44721 23.9852
rtibia 7.06611
rfoot -14.8694 -10.1996
rtoes -10.9833
lfemur -15.526 -11.2931 4.52541
ltibia 24.4245
lfoot -26.2001 -20.3611
ltoes -45.3495
432
root 22.2365 16.0593 2.58989 -169.921 5.16955 -175.354
lowerback 10.1673 0.910722 2.03897
upperback -8.20847 1.87464 -0.714897
thorax -14.7689 0.766381 -2.41039
lowerneck -19.0264 -2.1003 -1.96036
upperneck 35.9684 2.0571 -3.71572
head 16.0721 1.08318 -0.573971
rclavicle -1.64494e-014 1.59028e-015
rhumerus -52.3748 18.1641 -83.7904
rradius 34.1042
rwrist -13.013
rhand -25.6789 -15.34
rfingers 7.12502
rthumb 0.855904 -45.318
lclavicle -1.64494e-014 1.59028e-015
lhumerus -51.5801 6.72745 66.2424
lradius 29.0508
lwrist -5.99791
lhand -33.6237 30.0346
lfingers 7.12502
lthumb -6.81629 59.9048
rfemur -6.44163 8.61611 24.8327
rtibia 6.6797
rfoot -14.7238 -10.5924
rtoes -12.7989
lfemur -17.6324 -9.14347 2.62735
ltibia 27.9703
lfoot -24.1197 -20.9236
ltoes -42.2029
433
root 22.4048 16.0962 2.6278 -169.606 5.02279 -175.663
lowerback 10.0639 0.863076 2.26687
upperback -8.34865 1.85904 -0.796126
thorax -14.8656 0.735166 -2.62875
lowerneck -18.8421 -2.19039 -2.3221
upperneck 35.8461 2.02254 -3.66924
head 15.967 1.02862 -0.495979
rclavicle -1.60022e-014 5.56597e-015
rhumerus -52.3489 18.375 -83.4242
rradius 34.4358
rwrist -13.0167
rhand -25.7208 -15.3124
rfingers 7.12502
rthumb 0.815428 -45.2906
lclavicle -1.60022e-014 5.56597e-015
lhumerus -51.598 6.81619 66.4191
lradius 29.1201
lwrist -6.74684
lhand -32.3863 30.0071
lfingers 7.12502
lthumb -5.62175 59.9125
rfemur -6.57097 8.84481 25.1655
rtibia 6.103
rfoot -14.5099 -11.2056
rtoes -14.0975
lfemur -19.7824 -7.39596 -0.0256826
ltibia 31.2906
lfoot -21.6512 -20.9369
ltoes -39.359
434
root 22.5659 16.1289 2.66395 -169.338 4.80995 -175.923
lowerback 9.92158 0.811782 2.59968
upperback -8.42551 1.84382 -0.900804
thorax -14.8586 0.691351 -2.92847
lowerneck -18.9325 -2.24669 -2.49125
upperneck 35.9096 2.0734 -3.7794
head 16.0259 1.0134 -0.503438
rclavicle -3.32219e-014 2.3059e-014
rhumerus -52.2504 18.3689 -82.9912
rradius 34.7235
rwrist -12.9839
rhand -25.6163 -15.3298
rfingers 7.12502
rthumb 0.916292 -45.3076
lclavicle -3.32219e-014 2.3059e-014
lhumerus -51.5067 6.95944 66.5793
lradius 29.3366
lwrist -6.49022
lhand -31.2482 28.8884
lfingers 7.12502
lthumb -4.52284 58.8201
rfemur -6.56608 9.18142 25.536
rtibia 5.42338
rfoot -14.2813 -11.948
rtoes -14.611
lfemur -21.6431 -6.14143 -2.85924
ltibia 34.0945
lfoot -18.9347 -20.1107
ltoes -36.2739
435
root 22.7229 16.1539 2.6882 -169.19 4.64426 -176.24
lowerback 9.69139 0.834149 2.56483
upperback -8.47922 1.8721 -0.937634
thorax -14.7742 0.713427 -2.95057
lowerneck -18.9203 -2.24996 -2.28262
upperneck 35.9946 2.16701 -4.09665
head 16.075 1.05007 -0.656379
rclavicle 9.11925e-015 -1.90833e-014
rhumerus -52.232 18.2358 -82.3996
rradius 34.9602
rwrist -13.0019
rhand -25.8393 -15.6402
rfingers 7.12502
rthumb 0.70092 -45.6188
lclavicle 9.11925e-015 -1.90833e-014
lhumerus -51.2677 6.05267 67.4148
lradius 29.3738
lwrist -5.35409
lhand -28.5831 26.0196
lfingers 7.12502
lthumb -1.94912 55.9905
rfemur -6.25658 9.85096 25.8802
rtibia 4.59364
rfoot -14.387 -13.0081
rtoes -16.019
lfemur -22.9644 -5.22029 -5.94767
ltibia 36.2635
lfoot -15.8306 -18.5496
ltoes -32.5379
436
root 22.8544 16.1697 2.72019 -169.093 4.32974 -176.011
lowerback 9.725 0.841245 2.92476
upperback -8.58238 1.98649 -0.731729
thorax -14.9123 0.744802 -2.95392
lowerneck -18.6727 -2.32738 -1.96889
upperneck 35.9645 2.12254 -4.50844
head 16.0079 1.03637 -0.893441
rclavicle -8.94531e-015 -7.95139e-016
rhumerus -52.2739 17.9902 -81.6224
rradius 35.0322
rwrist -12.744
rhand -26.5251 -16.1933
rfingers 7.12502
rthumb 0.03859 -46.1731
lclavicle -8.94531e-015 -7.95139e-016
lhumerus -51.1801 5.8166 67.6212
lradius 29.6936
lwrist -5.82618
lhand -29.7769 29.0114
lfingers 7.12502
lthumb -3.102 58.9686
rfemur -6.04586 10.2581 26.726
rtibia 3.97025
rfoot -14.5231 -13.9851
rtoes -18.2568
lfemur -24.3828 -4.72184 -8.51044
ltibia 38.3599
lfoot -12.4505 -16.7728
ltoes -28.8898
437
root 22.9796 16.1902 2.74865 -168.93 4.14877 -176.142
lowerback 9.67782 0.866632 2.89965
upperback -8.68841 2.05088 -0.615248
thorax -15.0113 0.789556 -2.82692
lowerneck -18.4745 -2.41315 -1.90514
upperneck 35.8926 2.07568 -4.75868
head 15.929 1.0026 -1.01782
rclavicle -6.21202e-015 9.14409e-015
rhumerus -52.2786 17.9271 -81.0441
rradius 34.9848
rwrist -12.8951
rhand -26.648 -16.2292
rfingers 7.12502
rthumb -0.0800755 -46.209
lclavicle -6.21202e-015 9.14409e-015
lhumerus -51.0265 5.60478 67.8062
lradius 30.0981
lwrist -5.70264
lhand -30.3319 30.5494
lfingers 7.12502
lthumb -3.63802 60.4981
rfemur -5.98886 10.6901 27.0872
rtibia 3.42415
rfoot -15.0249 -14.254
rtoes -16.4013
lfemur -25.566 -4.44681 -11.5635
ltibia 39.9682
lfoot -8.80717 -15.2335
ltoes -24.865
438
root 23.0956 16.2146 2.76797 -168.692 4.16717 -176.677
lowerback 9.46216 0.923007 2.72484
upperback -8.8084 2.10855 -0.683896
thorax -15.0166 0.838754 -2.81587
lowerneck -18.276 -2.4403 -2.02663
upperneck 35.7707 2.11343 -4.85589
head 15.8253 0.997234 -1.02728
rclavicle -2.90723e-015 6.75868e-015
rhumerus -52.3659 18.0964 -80.7993
rradius 34.9644
rwrist -13.7164
rhand -26.2769 -15.9346
rfingers 7.12502
rthumb 0.278345 -45.9141
lclavicle -2.90723e-015 6.75868e-015
lhumerus -50.8442 4.96576 68.2499
lradius 30.4162
lwrist -4.70853
lhand -29.3981 29.2317
lfingers 7.12502
lthumb -2.73622 59.1939
rfemur -6.10478 10.7875 26.8772
rtibia 2.97011
rfoot -14.6943 -14.5191
rtoes -17.678
lfemur -26.317 -4.33986 -15.0834
ltibia 40.8052
lfoot -5.07493 -14.1352
ltoes -18.9133
439
root 23.205 16.2367 2.78313 -168.387 4.25574 -177.029
lowerback 9.16417 1.0047 2.78317
upperback -8.92638 2.2431 -0.723178
thorax -14.9569 0.903932 -2.91571
lowerneck -18.1984 0.993425 -3.29282
upperneck 35.9949 0.748201 -3.35313
head 15.8258 -1.77926 -1.04918
rclavicle -3.2551e-014 1.70955e-014
rhumerus -52.4126 18.1574 -80.4828
rradius 34.9134
rwrist -14.2254
rhand -26.134 -15.8396
rfingers 7.12502
rthumb 0.416279 -45.819
lclavicle -3.2551e-014 1.70955e-014
lhumerus -50.6624 4.64298 68.6318
lradius 30.707
lwrist -3.72551
lhand -27.0016 23.8766
lfingers 7.12502
lthumb -0.421662 53.856
rfemur -6.34471 10.5364 26.8152
rtibia 2.61179
rfoot -14.1551 -14.4735
rtoes -19.5016
lfemur -26.7194 -4.4848 -18.2759
ltibia 40.8857
lfoot -1.92498 -13.6841
ltoes -17.1101
440
root 23.3145 16.2458 2.79815 -168.159 4.35477 -176.956
lowerback 8.97199 1.06972 3.20609
upperback -8.99544 2.41965 -0.658167
thorax -14.8967 0.953732 -3.11331
lowerneck -18.3651 1.01038 -3.28735
upperneck 36.048 0.842172 -3.4899
head 15.8954 -1.76061 -1.09572
rclavicle 1.88845e-015 1.07344e-014
rhumerus -52.2751 17.9981 -80.071
rradius 34.6666
rwrist -14.1669
rhand -26.1237 -15.9165
rfingers 7.12502
rthumb 0.426272 -45.8959
lclavicle 1.88845e-015 1.07344e-014
lhumerus -50.5216 4.70744 68.6064
lradius 31.1583
lwrist -2.82038
lhand -29.6032 28.1984
lfingers 7.12502
lthumb -2.93425 58.158
rfemur -6.45084 10.4547 27.3272
rtibia 2.31433
rfoot -14.277 -14.0856
rtoes -18.0739
lfemur -26.8551 -4.54724 -20.8257
ltibia 40.3343
lfoot -0.114796 -13.7473
ltoes -29.6705
